<?xml version="1.0" encoding="UTF-8" standalone="no"?>
<svg width="412" xmlns="http://www.w3.org/2000/svg" viewBox="0 0 412 512" height="512">
 <path fill="#6243B1" clip-rule="evenodd" d="m219.45 405.54l4.55 8.73 54.85-8.62-0.13-0.5-6.08-4.56-53.19 4.95zm62.47-26.87l-95.92-37.36 30.35 58.27 53.25-5.07 12.32-15.84z" fill-rule="evenodd"/>
 <path fill="#6BA79D" clip-rule="evenodd" d="m186 341.31l118.56-47.12-22.62 84.46-0.44 0.56-95.5-37.9z" fill-rule="evenodd"/>
 <path d="m318.24 300.27l-13.68-6.08-18.24 68.4 31.92-62.32z" fill="#47B5AA"/>
 <path d="m338 275.95l-33.44 18.24 13.68 6.08 19.76-24.32z" fill="#60CF84"/>
 <path d="m369.93 199.94l-31.93 76.01-33.44 18.24 65.37-94.25z" fill="#58C15C"/>
 <path d="m347.12 157.38l-42.56 136.81 65.37-94.25-22.81-42.56z" fill="#59C15C"/>
 <path d="m360.8 120.9l-13.68 36.48 22.81 42.56-9.13-79.04z" fill="#38B475"/>
 <path d="m330.4 72.259l30.4 48.641-15.2 41.04-15.2-89.681z" fill="#5DAF38"/>
 <path d="m313.68 90.5l16.72-18.241 15.2 89.681-31.92-71.44z" fill="#5AAE35"/>
 <path d="m290.88 38.818l39.52 33.441-16.72 18.241-22.8-51.682z" fill="#83BF44"/>
 <path d="m224 111.78l66.88-72.962 19.76 44.081-86.64 28.881z" fill="#CCCD1B"/>
 <path d="m219.44 78.339l71.44-39.521-66.88 72.962-4.56-33.441z" fill="#B3C418"/>
 <path d="m210.32 14.497l80.56 24.321-71.44 39.521-9.12-63.842z" fill="#B7BE13"/>
 <path d="m135.84 31.217l74.48-16.72-53.2 60.802-21.28-44.082z" fill="#D8C718"/>
 <path d="m224 111.78l-66.88-36.481 53.2-60.802 13.68 97.283z" fill="#E5D211"/>
 <path d="m266.56 160.42l44.08-77.521 34.96 79.041-79.04-1.52z" fill="#B2D129"/>
 <path d="m266.56 160.42l-42.56-48.64 86.64-28.881-44.08 77.521z" fill="#D1CF18"/>
 <path d="m260.48 236.42l6.08-76 79.04 1.52-85.12 74.48z" fill="#C4D31E"/>
 <path d="m304.56 294.19l-44.08-57.77 85.12-74.48-41.04 132.25z" fill="#9CD030"/>
 <path d="m186 341.31l74.48-104.89 44.08 57.77-118.56 47.12z" fill="#DBBC3A"/>
 <path d="m170.8 245.55l15.2 95.76 74.48-104.89-89.68 9.13z" fill="#F67918"/>
 <path fill="#C9238D" clip-rule="evenodd" d="m133.18 402.7l6.77 3.08 76.45-6.71-30.4-57.76-52.82 61.39z" fill-rule="evenodd"/>
 <path fill="#E9283C" clip-rule="evenodd" d="m128.99 400.8l-15.95-121.81 72.96 62.32-52.82 61.39-4.19-1.9z" fill-rule="evenodd"/>
 <path d="m170.8 245.55l-57.76 33.44 72.96 62.32-15.2-95.76z" fill="#F44523"/>
 <path d="m90.235 297.23l30.405 38-7.6-56.24-22.805 18.24z" fill="#E62639"/>
 <path d="m55.273 245.55l34.962 51.68 22.805-18.24-57.767-33.44z" fill="#F0400F"/>
 <path d="m105.44 204.5l-50.167 41.05 57.767 33.44-7.6-74.49z" fill="#F56206"/>
 <path d="m113.04 278.99l-7.6-74.49 65.36 41.05-57.76 33.44z" fill="#F66B03"/>
 <path d="m143.44 163.46l-38 41.04 65.36 41.05-27.36-82.09z" fill="#FB8804"/>
 <path d="m40.073 175.62l15.2 69.93 50.167-41.05-65.367-28.88z" fill="#F67900"/>
 <path d="m70.474 120.9l-30.401 54.72 65.367 28.88-34.966-83.6z" fill="#F69A07"/>
 <path d="m143.44 163.46l-72.966-42.56 34.966 83.6 38-41.04z" fill="#F9BF12"/>
 <path d="m55.273 113.3l-15.2 62.32 30.401-54.72-15.201-7.6z" fill="#FBC475"/>
 <path d="m93.275 61.618l-38.002 51.682 16.721 9.12 21.281-60.802z" fill="#EEAB0E"/>
 <path d="m157.12 75.299l-85.126 47.121 71.446 41.04 13.68-88.161z" fill="#EDB719"/>
 <path d="m93.275 61.619l-21.281 60.801 63.846-91.203-42.565 30.402z" fill="#EBCA17"/>
 <path d="m135.84 31.217l-63.846 91.203 85.126-47.121-21.28-44.082z" fill="#E9CE1C"/>
 <path d="m224 111.78l-80.56 51.68 13.68-88.161 66.88 36.481z" fill="#F4DF1B"/>
 <path d="m266.56 160.42l-123.12 3.04 80.56-51.68 42.56 48.64z" fill="#F3E82F"/>
 <path d="m266.56 160.42l-95.76 85.13-27.36-82.09 123.12-3.04z" fill="#F7B110"/>
 <path d="m260.48 236.42l6.08-76-95.76 85.13 89.68-9.13z" fill="#F5CD11"/>
 <path fill="#754DBE" clip-rule="evenodd" d="m222.21 427.91l1.79-13.64-16.57 15.04 14.78-1.4zm-48.46 31.97l26.04-23.63 21.58-2.01-2.81 21.38-44.81 4.26zm-29.93 27.17l22.35-20.29 51.55-4.74-2.4 18.22-71.5 6.81zm70.57 0.23l-2.76 20.98-56.26 1.5-13.45-16.44 72.47-6.04z" fill-rule="evenodd"/>
 <path fill="#B21C87" clip-rule="evenodd" d="m188.54 431.11l21.47-24.69-68.09 6.33-9.12 10.64 2.4 8.8 6.72 3.36 46.62-4.44zm-31.75 36.52l-16.44 18.89-2.72-1.23-1.79-7.17 6.08-9.13 14.87-1.36zm25.9-29.79l-20.09 23.1-20.68 1.97-6.78-3.07-0.82-9.09 7.6-9.12 40.77-3.79zm-42.74-32.06l76.45-6.71-0.48 0.55-74 7.05-1.97-0.89z" fill-rule="evenodd"/>
 <path fill="#9F218E" clip-rule="evenodd" d="m207.43 429.31l16.57-15.04-4.38-8.75-9.61 0.9-21.47 24.69 18.89-1.8zm-44.83 31.63l20.09-23.1 17.1-1.59-26.04 23.63-11.15 1.06zm-22.25 25.58l16.44-18.89 9.38-0.87-22.35 20.29-1.9 0.19-1.57-0.72zm76.29-86.96l-0.24-0.49-0.48 0.55 0.72-0.06z" fill-rule="evenodd"/>
 <path fill="#5F41AD" clip-rule="evenodd" d="m278.82 405.53l-54.82 8.74-1.79 13.64 47.39-4.52 9.86-5.91 0.78-6.25-1.42-5.7zm-60.26 50.09l2.81-21.38 51.27-4.77 6.08 6.08 1.52 7.6-0.15 0.76-10.49 6.84-51.04 4.87zm-3.24 24.62l2.4-18.22 56.44-5.19 4.56 6.08-0.86 6.91-8.26 5.26-54.28 5.16zm-3.69 28.02l2.76-20.98 55.21-4.6 0.61 5.46-12.23 18.88-46.35 1.24z" fill-rule="evenodd"/>
 <path d="m71.867 306.76l-9.952 18.63 19.415-11.96-9.463-6.67z" fill="#FEDD4E"/>
 <path d="m44.676 267.84l-16.062 13.71 22.439-4.04-6.377-9.67z" fill="#FEDD4E"/>
 <path d="m28.821 223.56l-19.315 8.54 22.658 2.54-3.343-11.08z" fill="#FEDD4E"/>
 <path d="m20.105 172.94l-20.105 6.46 22.266 4.92-2.161-11.38z" fill="#FEDD4E"/>
 <path d="m30.064 127.94l-20.957-2.59 18.137 13.81 2.82-11.22z" fill="#FEDD4E"/>
 <path d="m49.16 84.885l-19.313-8.54 13.366 18.472 5.947-9.932z" fill="#FEDD4E"/>
 <path d="m79.393 47.198l-17.408-11.955 9.731 20.62 7.677-8.665z" fill="#FEDD4E"/>
 <path d="m120.23 18.096l-12.85-16.759 2.86 22.62 9.99-5.861z" fill="#FEDD4E"/>
 <path d="m339.81 306.76l9.96 18.63-19.42-11.96 9.46-6.67z" fill="#FEDD4E"/>
 <path d="m367 267.84l16.07 13.71-22.44-4.04 6.37-9.67z" fill="#FEDD4E"/>
 <path d="m382.86 223.56l19.32 8.54-22.66 2.54 3.34-11.08z" fill="#FEDD4E"/>
 <path d="m391.58 172.94l20.1 6.46-22.26 4.92 2.16-11.38z" fill="#FEDD4E"/>
 <path d="m381.62 127.94l20.96-2.59-18.14 13.81-2.82-11.22z" fill="#FEDD4E"/>
 <path d="m362.52 84.885l19.32-8.54-13.37 18.472-5.95-9.932z" fill="#FEDD4E"/>
 <path d="m332.29 47.198l17.41-11.955-9.74 20.62-7.67-8.665z" fill="#FEDD4E"/>
 <path d="m291.46 18.096l12.84-16.759-2.86 22.62-9.98-5.861z" fill="#FEDD4E"/>
</svg>
