<svg id="Layer" enable-background="new 0 0 64 64" height="512" viewBox="0 0 64 64" width="512"
     xmlns="http://www.w3.org/2000/svg">
  <path
    fill="#fff"
    d="m55.492 39.669-4.46-5c-.52-.583-1.333-.812-2.077-.581l-6.54 2c-1.057.322-1.65 1.44-1.327 2.497.322 1.057 1.439 1.647 2.497 1.327l2.746-.839c-2.659 5.404-8.197 8.927-14.331 8.927-7.525 0-13.936-5.115-15.589-12.44-.243-1.076-1.313-1.749-2.391-1.511-1.077.243-1.754 1.314-1.51 2.392 2.067 9.161 10.082 15.559 19.49 15.559 8.015 0 15.222-4.807 18.351-12.087l2.157 2.418c.394.443.942.669 1.493.669.474 0 .949-.167 1.33-.508.824-.735.897-1.999.161-2.823z"/>
  <path
    fill="#fff"
    d="m14.46 30c.195 0 .392-.028.585-.087l6.54-2c1.056-.323 1.65-1.441 1.328-2.498-.323-1.056-1.44-1.652-2.498-1.328l-2.745.84c2.658-5.404 8.196-8.927 14.33-8.927 7.526 0 13.937 5.116 15.589 12.44.21.929 1.035 1.56 1.949 1.56.146 0 .294-.016.442-.049 1.077-.243 1.754-1.314 1.511-2.392-2.067-9.161-10.082-15.559-19.491-15.559-8.014 0-15.222 4.807-18.351 12.086l-2.157-2.418c-.736-.825-2-.895-2.824-.161-.824.735-.896 2-.161 2.824l4.46 5c.386.433.932.669 1.493.669z"/>
</svg>
