<?xml version="1.0" standalone="no"?>
<!DOCTYPE svg PUBLIC "-//W3C//DTD SVG 20010904//EN"
 "http://www.w3.org/TR/2001/REC-SVG-20010904/DTD/svg10.dtd">
<svg version="1.0" xmlns="http://www.w3.org/2000/svg"
 width="512.000000pt" height="512.000000pt" viewBox="0 0 512.000000 512.000000"
 preserveAspectRatio="xMidYMid meet">
<metadata>
Created by potrace 1.11, written by Peter Selinger 2001-2013
</metadata>
<g transform="translate(0.000000,512.000000) scale(0.100000,-0.100000)"
fill="#000000" stroke="none">
<path d="M1573 5094 c3 -6 8 -39 12 -75 3 -35 8 -73 10 -84 2 -11 4 -28 4 -38
1 -16 6 -15 49 9 26 15 49 29 51 30 4 4 -109 153 -122 161 -6 3 -7 2 -4 -3z"/>
<path d="M3480 5025 c-30 -41 -56 -78 -58 -83 -3 -9 85 -58 92 -52 2 3 7 28
10 55 3 28 8 74 12 103 3 28 4 52 3 52 -2 0 -29 -34 -59 -75z"/>
<path d="M2505 4954 c-27 -8 -63 -17 -80 -20 -16 -3 -50 -10 -75 -15 -25 -6
-52 -12 -60 -14 -8 -2 -58 -13 -110 -25 -52 -12 -106 -24 -120 -26 -14 -3 -66
-15 -116 -27 -89 -22 -96 -26 -301 -172 l-210 -150 -109 -148 c-60 -81 -118
-161 -129 -177 -11 -15 -48 -66 -81 -112 l-62 -83 -47 -195 c-26 -107 -60
-246 -76 -308 -24 -93 -27 -120 -20 -155 6 -23 12 -53 15 -67 2 -14 19 -90 36
-170 18 -80 34 -152 35 -160 2 -8 8 -35 14 -60 5 -25 13 -61 16 -80 18 -104
32 -131 193 -370 91 -135 191 -279 224 -320 117 -150 193 -245 198 -250 21
-18 62 -82 65 -102 7 -35 30 -209 41 -303 3 -27 7 -61 9 -75 3 -14 7 -47 10
-75 7 -60 25 -179 28 -181 17 -16 131 -61 149 -59 40 4 161 16 213 20 66 6
161 15 205 20 19 2 67 7 105 11 39 3 84 8 100 9 17 2 66 6 110 10 44 4 94 8
110 11 17 2 62 6 100 9 39 4 86 8 105 10 19 2 67 7 106 10 39 3 78 7 87 9 9 1
31 22 48 46 18 24 41 54 51 65 29 29 43 62 61 136 23 92 329 694 385 754 82
90 154 191 178 247 14 35 32 77 39 93 8 17 44 102 80 190 37 88 91 218 121
288 36 84 53 137 50 155 -3 15 -7 54 -10 87 -4 33 -8 76 -11 95 -2 19 -7 58
-10 85 -3 28 -7 66 -10 85 -2 19 -7 62 -10 95 -3 33 -8 71 -10 85 -3 14 -7 48
-9 75 -14 139 -20 161 -51 210 -18 27 -85 135 -150 238 -128 205 -120 194
-190 252 -26 22 -53 45 -59 50 -6 6 -54 46 -106 90 -52 44 -108 92 -125 107
-16 16 -43 32 -60 37 -294 93 -772 231 -797 230 -18 -1 -55 -8 -83 -15z"/>
<path d="M1167 4668 c25 -51 47 -95 50 -98 7 -7 73 72 67 82 -5 8 -151 108
-158 108 -2 0 17 -42 41 -92z"/>
<path d="M3920 4714 c-36 -24 -72 -49 -81 -55 -14 -10 -11 -16 22 -52 21 -23
40 -39 42 -37 9 10 88 183 85 186 -2 2 -33 -17 -68 -42z"/>
<path d="M812 4342 c9 -23 114 -161 121 -159 4 1 19 21 33 45 l25 43 -67 30
c-92 42 -116 51 -112 41z"/>
<path d="M4213 4311 c-46 -20 -83 -39 -83 -43 0 -4 13 -27 28 -51 l28 -44 54
75 c66 90 73 102 63 101 -4 -1 -45 -17 -90 -38z"/>
<path d="M604 3861 c10 -16 152 -121 163 -121 9 0 37 90 30 97 -6 5 -33 10
-112 18 -38 4 -74 9 -79 12 -5 4 -6 1 -2 -6z"/>
<path d="M4465 3860 c-27 -5 -69 -10 -93 -13 -23 -2 -45 -7 -48 -10 -3 -2 1
-28 8 -57 l13 -52 88 67 c48 37 87 69 87 71 0 2 -1 3 -2 3 -2 -1 -25 -5 -53
-9z"/>
<path d="M595 3357 l-90 -31 70 -16 c39 -9 87 -20 108 -24 l38 -7 -6 38 c-10
55 -15 73 -23 72 -4 -1 -47 -15 -97 -32z"/>
<path d="M4404 3335 l-10 -56 26 5 c49 9 185 38 188 41 2 2 -182 65 -191 65
-1 0 -7 -25 -13 -55z"/>
<path d="M743 2866 c-12 -7 -47 -23 -78 -36 -68 -29 -60 -35 55 -45 47 -4 88
-9 93 -12 10 -6 9 -5 -8 55 -16 54 -24 59 -62 38z"/>
<path d="M4319 2854 c-16 -43 -23 -88 -13 -82 8 5 135 20 187 22 9 0 17 3 17
6 0 5 -107 54 -167 77 -7 3 -18 -8 -24 -23z"/>
<path d="M925 2423 c-11 -10 -44 -38 -73 -62 -29 -24 -51 -45 -49 -47 2 -2 49
3 105 13 l101 16 -15 27 c-9 14 -24 36 -33 48 -16 22 -17 22 -36 5z"/>
<path d="M4140 2395 c-18 -26 -30 -48 -28 -49 4 -4 182 -36 198 -36 7 0 2 9
-11 21 -13 11 -38 32 -54 47 -79 71 -69 69 -105 17z"/>
<path d="M1202 2023 c-6 -16 -27 -56 -47 -91 -20 -35 -32 -62 -28 -59 4 2 48
28 97 57 84 51 87 55 68 68 -12 8 -31 22 -43 33 -29 25 -35 24 -47 -8z"/>
<path d="M3848 2017 l-47 -31 92 -57 c51 -31 94 -55 95 -53 4 2 -75 153 -87
166 -3 3 -27 -8 -53 -25z"/>
<path d="M3219 1115 c-2 -2 -42 -6 -89 -9 -47 -4 -96 -8 -110 -11 -14 -2 -54
-6 -90 -9 -167 -14 -207 -18 -230 -21 -14 -2 -61 -6 -105 -10 -44 -3 -96 -8
-115 -10 -46 -5 -140 -14 -215 -20 -33 -3 -78 -7 -100 -10 -22 -2 -74 -7 -115
-11 -41 -3 -88 -7 -103 -9 -19 -1 -39 -15 -60 -41 -17 -21 -37 -43 -44 -47
-16 -10 -16 -21 -3 -69 7 -25 21 -43 46 -57 20 -12 39 -19 42 -17 4 2 45 7 92
11 47 3 96 8 110 10 14 2 59 6 100 10 41 3 91 8 110 10 19 2 71 6 115 10 44 3
91 8 105 10 14 2 57 7 95 10 39 3 86 8 105 10 19 2 73 7 120 10 47 3 92 8 100
10 12 3 114 13 195 19 11 1 44 16 73 34 50 30 52 34 51 74 0 24 -3 50 -7 59
-8 18 -67 71 -73 64z"/>
<path d="M3198 825 c-1 -1 -41 -6 -88 -10 -47 -4 -98 -9 -115 -11 -16 -2 -57
-6 -90 -9 -81 -7 -218 -19 -325 -30 -25 -3 -72 -7 -105 -10 -81 -7 -160 -14
-220 -20 -79 -8 -139 -14 -222 -20 -99 -9 -111 -11 -126 -27 -43 -46 -64 -78
-61 -99 1 -13 3 -33 3 -45 1 -29 57 -53 112 -49 38 3 118 11 209 20 14 1 61 6
105 9 44 4 91 9 105 11 14 2 61 7 105 11 44 3 96 8 115 10 19 2 64 6 100 9 36
3 79 7 95 9 17 3 71 8 120 11 50 4 97 9 105 10 8 2 51 6 95 10 68 6 88 12 134
42 53 35 53 35 47 76 -4 26 -17 51 -34 68 -26 25 -56 41 -64 34z"/>
<path d="M3137 544 c-1 -1 -36 -5 -77 -8 -41 -4 -95 -9 -120 -11 -98 -10 -158
-16 -215 -20 -33 -3 -75 -7 -95 -10 -19 -3 -68 -7 -109 -10 -41 -3 -95 -7
-120 -10 -25 -3 -71 -7 -101 -10 -30 -2 -73 -6 -95 -9 -22 -3 -78 -8 -125 -12
-47 -3 -96 -8 -110 -9 -14 -2 -30 -3 -37 -4 -7 -1 -26 -21 -43 -46 -26 -37
-30 -51 -24 -80 4 -21 15 -40 27 -46 18 -10 91 -8 207 6 19 2 63 6 97 9 34 3
81 7 105 10 24 3 75 8 113 11 39 4 86 8 105 10 19 2 64 7 100 10 36 3 88 8
115 10 28 3 76 7 108 10 31 2 76 7 100 10 23 3 68 7 100 10 115 9 153 17 195
41 30 18 42 32 43 49 1 14 2 31 3 38 0 7 -9 25 -20 40 -20 24 -28 27 -74 25
-28 -2 -52 -4 -53 -4z"/>
<path d="M3099 286 c-2 -2 -51 -7 -109 -11 -130 -9 -207 -15 -375 -31 -27 -3
-79 -7 -115 -9 -64 -4 -155 -12 -235 -20 -22 -2 -80 -7 -130 -11 -49 -4 -101
-8 -115 -9 -14 -2 -42 -3 -63 -4 l-38 -1 45 -58 c96 -120 78 -111 196 -107 58
2 222 7 365 10 143 4 303 9 355 10 52 2 119 3 148 4 l52 1 60 92 c36 56 60
104 60 121 0 26 -2 27 -48 27 -27 0 -51 -2 -53 -4z"/>
</g>
</svg>
