<svg width="412" height="512" viewBox="0 0 412 512" fill="none" xmlns="http://www.w3.org/2000/svg">
<path fill-rule="evenodd" clip-rule="evenodd" d="M219.452 405.54L224 414.272L278.847 405.653L278.722 405.152L272.642 400.592L219.452 405.54ZM281.923 378.67L185.998 341.31L216.349 399.583L269.602 394.512L281.923 378.67Z" fill="#6243B1"/>
<path fill-rule="evenodd" clip-rule="evenodd" d="M185.998 341.31L304.563 294.188L281.94 378.648L281.504 379.209L185.998 341.31Z" fill="#6BA79D"/>
<path d="M318.244 300.268L304.563 294.188L286.322 362.59L318.244 300.268Z" fill="#47B5AA"/>
<path d="M338.004 275.947L304.563 294.188L318.244 300.268L338.004 275.947Z" fill="#60CF84"/>
<path d="M369.926 199.944L338.004 275.947L304.563 294.188L369.926 199.944Z" fill="#58C15C"/>
<path d="M347.125 157.382L304.563 294.188L369.926 199.944L347.125 157.382Z" fill="#59C15C"/>
<path d="M360.805 120.901L347.125 157.382L369.926 199.944L360.805 120.901Z" fill="#38B475"/>
<path d="M330.404 72.259L360.805 120.901L345.605 161.942L330.404 72.259Z" fill="#5DAF38"/>
<path d="M313.683 90.4997L330.404 72.259L345.605 161.942L313.683 90.4997Z" fill="#5AAE35"/>
<path d="M290.882 38.8177L330.404 72.259L313.683 90.4997L290.882 38.8177Z" fill="#83BF44"/>
<path d="M224 111.781L290.882 38.8177L310.643 82.8994L224 111.781Z" fill="#CCCD1B"/>
<path d="M219.44 78.3392L290.882 38.8177L224 111.781L219.44 78.3392Z" fill="#B3C418"/>
<path d="M210.319 14.4967L290.882 38.8176L219.44 78.3392L210.319 14.4967Z" fill="#B7BE13"/>
<path d="M135.836 31.2173L210.319 14.4967L157.117 75.2991L135.836 31.2173Z" fill="#D8C718"/>
<path d="M224 111.781L157.117 75.2991L210.319 14.4967L224 111.781Z" fill="#E5D211"/>
<path d="M266.562 160.422L310.643 82.8994L345.605 161.942L266.562 160.422Z" fill="#B2D129"/>
<path d="M266.562 160.422L224 111.781L310.643 82.8994L266.562 160.422Z" fill="#D1CF18"/>
<path d="M260.481 236.425L266.562 160.422L345.605 161.942L260.481 236.425Z" fill="#C4D31E"/>
<path d="M304.563 294.188L260.481 236.425L345.605 161.942L304.563 294.188Z" fill="#9CD030"/>
<path d="M185.998 341.31L260.481 236.425L304.563 294.188L185.998 341.31Z" fill="#DBBC3A"/>
<path d="M170.798 245.546L185.998 341.31L260.481 236.425L170.798 245.546Z" fill="#F67918"/>
<path fill-rule="evenodd" clip-rule="evenodd" d="M133.175 402.699L139.95 405.778L216.4 399.072L185.998 341.31L133.175 402.699Z" fill="#C9238D"/>
<path fill-rule="evenodd" clip-rule="evenodd" d="M128.986 400.795L113.035 278.987L185.998 341.31L133.175 402.699L128.986 400.795Z" fill="#E9283C"/>
<path d="M170.798 245.546L113.035 278.987L185.998 341.31L170.798 245.546Z" fill="#F44523"/>
<path d="M90.2346 297.228L120.636 335.229L113.035 278.987L90.2346 297.228Z" fill="#E62639"/>
<path d="M55.2732 245.546L90.2346 297.228L113.035 278.987L55.2732 245.546Z" fill="#F0400F"/>
<path d="M105.435 204.504L55.2732 245.546L113.035 278.987L105.435 204.504Z" fill="#F56206"/>
<path d="M113.035 278.987L105.435 204.504L170.798 245.546L113.035 278.987Z" fill="#F66B03"/>
<path d="M143.437 163.463L105.435 204.504L170.798 245.546L143.437 163.463Z" fill="#FB8804"/>
<path d="M40.0726 175.623L55.2732 245.546L105.435 204.504L40.0726 175.623Z" fill="#F67900"/>
<path d="M70.4738 120.901L40.0726 175.623L105.435 204.504L70.4738 120.901Z" fill="#F69A07"/>
<path d="M143.437 163.463L70.4738 120.901L105.435 204.504L143.437 163.463Z" fill="#F9BF12"/>
<path d="M55.2732 113.301L40.0726 175.623L70.4738 120.901L55.2732 113.301Z" fill="#FBC475"/>
<path d="M93.2747 61.6185L55.2732 113.301L71.9939 122.421L93.2747 61.6185Z" fill="#EEAB0E"/>
<path d="M157.117 75.2991L71.9939 122.421L143.437 163.463L157.117 75.2991Z" fill="#EDB719"/>
<path d="M93.2747 61.6186L71.9939 122.421L135.836 31.2174L93.2747 61.6186Z" fill="#EBCA17"/>
<path d="M135.836 31.2174L71.9939 122.421L157.117 75.2991L135.836 31.2174Z" fill="#E9CE1C"/>
<path d="M224 111.781L143.437 163.463L157.117 75.2991L224 111.781Z" fill="#F4DF1B"/>
<path d="M266.562 160.422L143.437 163.463L224 111.781L266.562 160.422Z" fill="#F3E82F"/>
<path d="M266.562 160.422L170.798 245.546L143.437 163.463L266.562 160.422Z" fill="#F7B110"/>
<path d="M260.481 236.425L266.561 160.422L170.798 245.546L260.481 236.425Z" fill="#F5CD11"/>
<path fill-rule="evenodd" clip-rule="evenodd" d="M222.206 427.907L224 414.272L207.429 429.314L222.206 427.907ZM173.752 459.882L199.787 436.25L221.372 434.242L218.56 455.615L173.752 459.882ZM143.816 487.054L166.17 466.764L217.717 462.024L215.319 480.245L143.816 487.054ZM214.394 487.276L211.633 508.258L155.37 509.758L141.917 493.315L214.394 487.276Z" fill="#754DBE"/>
<path fill-rule="evenodd" clip-rule="evenodd" d="M188.538 431.113L210.012 406.418L141.917 412.752L132.796 423.393L135.196 432.193L141.917 435.553L188.538 431.113ZM156.786 467.627L140.354 486.525L137.629 485.286L135.836 478.115L141.917 468.994L156.786 467.627ZM182.687 437.841L162.597 460.945L141.917 462.914L135.142 459.835L134.316 450.754L141.917 441.633L182.687 437.841ZM139.95 405.778L216.4 399.072L215.919 399.624L141.917 406.672L139.95 405.778Z" fill="#B21C87"/>
<path fill-rule="evenodd" clip-rule="evenodd" d="M207.429 429.314L224 414.272L219.625 405.524L210.012 406.418L188.538 431.113L207.429 429.314ZM162.597 460.945L182.687 437.841L199.787 436.25L173.752 459.882L162.597 460.945ZM140.354 486.525L156.786 467.627L166.17 466.764L143.816 487.054L141.917 487.235L140.354 486.525ZM216.641 399.555L216.4 399.072L215.919 399.624L216.641 399.555Z" fill="#9F218E"/>
<path fill-rule="evenodd" clip-rule="evenodd" d="M278.817 405.533L224 414.272L222.206 427.907L269.602 423.393L279.461 417.477L280.242 411.232L278.817 405.533ZM218.56 455.615L221.372 434.242L272.642 429.473L278.722 435.553L280.242 443.153L280.09 443.914L269.602 450.754L218.56 455.615ZM215.319 480.244L217.717 462.024L274.162 456.834L278.722 462.914L277.859 469.82L269.602 475.075L215.319 480.244ZM211.633 508.258L214.394 487.276L269.602 482.675L270.209 488.138L257.977 507.022L211.633 508.258Z" fill="#5F41AD"/>
<path d="M71.8673 306.763L61.9154 325.388L81.3299 313.432L71.8673 306.763Z" fill="#FEDD4E"/>
<path d="M44.6764 267.845L28.6142 281.554L51.053 277.507L44.6764 267.845Z" fill="#FEDD4E"/>
<path d="M28.8206 223.558L9.50581 232.095L32.1641 234.641L28.8206 223.558Z" fill="#FEDD4E"/>
<path d="M20.1047 172.943L4.259e-06 179.404L22.2655 184.316L20.1047 172.943Z" fill="#FEDD4E"/>
<path d="M30.0645 127.936L9.10663 125.346L27.2435 139.164L30.0645 127.936Z" fill="#FEDD4E"/>
<path d="M49.1601 84.8852L29.8468 76.3447L43.2128 94.8172L49.1601 84.8852Z" fill="#FEDD4E"/>
<path d="M79.3927 47.1976L61.9853 35.2426L71.7162 55.8627L79.3927 47.1976Z" fill="#FEDD4E"/>
<path d="M120.226 18.0961L107.378 1.33697L110.243 23.9572L120.226 18.0961Z" fill="#FEDD4E"/>
<path d="M339.814 306.763L349.766 325.388L330.351 313.432L339.814 306.763Z" fill="#FEDD4E"/>
<path d="M367.005 267.845L383.067 281.554L360.628 277.507L367.005 267.845Z" fill="#FEDD4E"/>
<path d="M382.861 223.558L402.175 232.095L379.517 234.641L382.861 223.558Z" fill="#FEDD4E"/>
<path d="M391.577 172.943L411.681 179.404L389.416 184.316L391.577 172.943Z" fill="#FEDD4E"/>
<path d="M381.617 127.936L402.575 125.346L384.438 139.164L381.617 127.936Z" fill="#FEDD4E"/>
<path d="M362.521 84.8852L381.835 76.3447L368.469 94.8172L362.521 84.8852Z" fill="#FEDD4E"/>
<path d="M332.289 47.1976L349.696 35.2426L339.965 55.8627L332.289 47.1976Z" fill="#FEDD4E"/>
<path d="M291.455 18.0961L304.303 1.33697L301.439 23.9572L291.455 18.0961Z" fill="#FEDD4E"/>
</svg>
