<svg width="452" height="579" viewBox="0 0 452 579" fill="none" xmlns="http://www.w3.org/2000/svg">
  <g clip-path="url(#clip0)">
    <path d="M227.768 579.068C155.579 579.068 100.051 558.242 61.1835 516.591C206.199 515.367 328.125 480.555 328.125 318.139V19.0055C328.125 -6.24163 452.045 -6.24163 452.045 19.0055V305.049C452.045 452.71 390.788 579.068 227.768 579.068Z" fill="#fff"/>
    <path d="M129.156 188.74V19.0055C129.156 -6.33519 -2.3086e-05 -6.33512 0 19.0055V126.774C0 148.585 85.2137 188.74 129.156 188.74Z" fill="#fff"/>
    <path d="M0 277.052C0 315.697 0.185089 354.278 6.61189 392.521C41.787 404.69 128.019 413.405 128.019 357.745C128.019 302.085 34.2137 289.085 0 277.052Z" fill="#fff"/>
  </g>
  <defs>
    <clipPath id="clip0">
      <rect width="452" height="579" fill="none"/>
    </clipPath>
  </defs>
</svg>
